<?xml version="1.0" standalone="no"?>
<!DOCTYPE svg PUBLIC "-//W3C//DTD SVG 20010904//EN"
 "http://www.w3.org/TR/2001/REC-SVG-20010904/DTD/svg10.dtd">
<svg version="1.0" xmlns="http://www.w3.org/2000/svg"
 width="1024.000000pt" height="1024.000000pt" viewBox="0 0 1024.000000 1024.000000"
 preserveAspectRatio="xMidYMid meet">

<g transform="translate(0.000000,1024.000000) scale(0.100000,-0.100000)"
fill="#000000" stroke="none">
<path d="M4156 6978 c-16 -14 -59 -96 -112 -213 -103 -228 -220 -485 -468
-1026 -102 -224 -186 -413 -186 -421 0 -7 7 -24 16 -36 22 -32 88 -31 109 1 8
13 57 117 109 231 52 115 98 212 103 217 10 10 139 -11 228 -36 56 -16 64 -26
153 -204 37 -74 53 -96 75 -104 46 -15 71 11 142 153 36 71 74 134 84 140 26
14 204 50 246 50 37 0 22 24 170 -293 66 -142 82 -168 104 -174 33 -9 51 -5
74 14 39 36 66 -29 -455 1083 -154 327 -287 603 -296 612 -30 30 -66 32 -96 6z
m161 -684 c118 -73 129 -248 22 -339 -44 -36 -74 -46 -136 -46 -75 0 -154 46
-188 111 -20 39 -28 112 -16 157 14 53 76 120 126 139 60 21 135 13 192 -22z"/>
<path d="M2240 6121 l0 -861 60 0 60 0 0 345 0 345 338 0 c202 0 362 4 398 11
135 25 274 118 341 231 18 30 43 92 54 138 72 282 -83 546 -366 626 -51 15
-122 18 -472 22 l-413 4 0 -861z m883 705 c179 -64 277 -211 264 -397 -13
-189 -137 -318 -334 -348 -40 -6 -208 -11 -382 -11 l-311 0 0 390 0 390 348 0
c341 0 348 -1 415 -24z"/>
<path d="M5240 6121 l0 -861 60 0 60 0 0 360 0 360 318 0 317 0 18 -27 c9 -16
108 -178 219 -360 l201 -333 69 0 c37 0 68 2 68 5 0 3 -42 74 -94 158 -137
223 -346 568 -346 571 0 2 17 6 38 10 106 17 259 131 316 236 75 137 75 319 0
467 -33 65 -143 172 -212 207 -113 57 -132 59 -599 63 l-433 4 0 -860z m944
699 c83 -35 166 -114 202 -192 26 -56 29 -74 29 -158 0 -76 -4 -104 -22 -142
-32 -71 -106 -143 -182 -181 l-66 -32 -392 -3 -393 -3 0 371 0 371 383 -3
c382 -3 382 -3 441 -28z"/>
<path d="M6800 6120 l0 -860 60 0 60 0 0 319 0 318 99 91 99 92 388 -410 389
-410 84 0 84 0 -59 63 c-33 34 -224 235 -424 446 -201 211 -366 387 -368 391
-2 6 413 416 753 743 l80 77 -90 0 -90 -1 -470 -461 -470 -461 -3 461 -2 462
-60 0 -60 0 0 -860z"/>
<path d="M2240 4100 l0 -851 58 3 57 3 3 413 2 412 505 0 505 0 0 -415 0 -416
58 3 57 3 3 848 2 847 -60 0 -60 0 -2 -372 -3 -373 -502 -3 -503 -2 0 375 0
375 -60 0 -60 0 0 -850z"/>
<path d="M3792 4103 l3 -848 598 -3 597 -2 0 60 0 60 -537 2 -538 3 -3 358 -2
357 385 0 385 0 0 55 0 55 -317 0 c-175 0 -348 3 -386 7 l-67 6 2 304 3 304
451 -1 c248 0 490 3 537 6 l87 7 0 58 0 59 -600 0 -600 0 2 -847z"/>
<path d="M5240 4101 l0 -851 60 0 60 0 2 363 3 362 305 3 c235 2 309 -1 321
-10 9 -7 110 -169 224 -360 l207 -348 46 -1 c26 0 57 -2 70 -3 16 -2 21 1 17
11 -5 15 -376 636 -408 684 l-18 26 72 23 c246 79 381 310 328 562 -34 163
-165 303 -338 360 -63 21 -86 22 -508 26 l-443 3 0 -850z m924 697 c162 -50
251 -173 251 -348 0 -76 -3 -93 -33 -152 -38 -77 -87 -123 -178 -165 l-59 -28
-392 -3 -393 -3 0 360 0 361 281 2 c381 4 441 1 523 -24z"/>
<path d="M6810 4100 l0 -850 598 2 597 3 3 58 3 57 -541 0 -540 0 0 360 0 360
380 0 380 0 0 59 0 60 -362 -5 c-200 -2 -371 -1 -380 2 -17 5 -18 28 -18 310
l0 304 373 1 c204 0 446 3 537 5 l165 5 3 59 3 60 -601 0 -600 0 0 -850z"/>
</g>
</svg>
